<?xml version="1.0" encoding="UTF-8" standalone="no"?>
<!-- Created with Inkscape (http://www.inkscape.org/) -->

<svg
   xmlns:dc="http://purl.org/dc/elements/1.1/"
   xmlns:cc="http://creativecommons.org/ns#"
   xmlns:rdf="http://www.w3.org/1999/02/22-rdf-syntax-ns#"
   xmlns:svg="http://www.w3.org/2000/svg"
   xmlns="http://www.w3.org/2000/svg"
   xmlns:xlink="http://www.w3.org/1999/xlink"
   xmlns:sodipodi="http://sodipodi.sourceforge.net/DTD/sodipodi-0.dtd"
   xmlns:inkscape="http://www.inkscape.org/namespaces/inkscape"
   width="128"
   height="128"
   id="svg3999"
   version="1.1"
   inkscape:version="0.48.4 r9939"
   sodipodi:docname="blob.svg"
   inkscape:export-filename="/home/paul/src/arachnonoia/data/blob.png"
   inkscape:export-xdpi="180"
   inkscape:export-ydpi="180">
  <defs
     id="defs4001">
    <linearGradient
       id="linearGradient4527">
      <stop
         style="stop-color:#ffffff;stop-opacity:1;"
         offset="0"
         id="stop4529" />
      <stop
         id="stop4535"
         offset="0.57954544"
         style="stop-color:#ffffff;stop-opacity:0.75838923;" />
      <stop
         style="stop-color:#ffffff;stop-opacity:0;"
         offset="1"
         id="stop4531" />
    </linearGradient>
    <radialGradient
       inkscape:collect="always"
       xlink:href="#linearGradient4527"
       id="radialGradient4533"
       cx="64"
       cy="64"
       fx="64"
       fy="64"
       r="64"
       gradientUnits="userSpaceOnUse" />
    <filter
       inkscape:collect="always"
       id="filter4539"
       x="-0.17213115"
       width="1.3442623"
       y="-0.17213115"
       height="1.3442623">
      <feGaussianBlur
         inkscape:collect="always"
         stdDeviation="9.1803279"
         id="feGaussianBlur4541" />
    </filter>
  </defs>
  <sodipodi:namedview
     id="base"
     pagecolor="#ffffff"
     bordercolor="#666666"
     borderopacity="1.0"
     inkscape:pageopacity="0.0"
     inkscape:pageshadow="2"
     inkscape:zoom="6.53125"
     inkscape:cx="64"
     inkscape:cy="64"
     inkscape:document-units="px"
     inkscape:current-layer="layer1"
     showgrid="false"
     inkscape:snap-bbox="true"
     inkscape:snap-page="true"
     inkscape:window-width="1916"
     inkscape:window-height="1015"
     inkscape:window-x="0"
     inkscape:window-y="42"
     inkscape:window-maximized="0"
     inkscape:snap-global="false" />
  <metadata
     id="metadata4004">
    <rdf:RDF>
      <cc:Work
         rdf:about="">
        <dc:format>image/svg+xml</dc:format>
        <dc:type
           rdf:resource="http://purl.org/dc/dcmitype/StillImage" />
        <dc:title></dc:title>
      </cc:Work>
    </rdf:RDF>
  </metadata>
  <g
     inkscape:label="Layer 1"
     inkscape:groupmode="layer"
     id="layer1"
     transform="translate(0,-924.36218)">
    <path
       sodipodi:type="arc"
       style="fill:url(#radialGradient4533);fill-opacity:1;stroke:none;filter:url(#filter4539)"
       id="path4009"
       sodipodi:cx="64"
       sodipodi:cy="64"
       sodipodi:rx="64"
       sodipodi:ry="64"
       d="M 128,64 A 64,64 0 1 1 0,64 64,64 0 1 1 128,64 z"
       transform="matrix(0.74390243,0,0,0.74390243,16.390245,940.75242)" />
    <g
       id="g4605"
       transform="matrix(1,0,0,0.24390248,0,746.05795)">
      <path
         sodipodi:nodetypes="cccccccccccccccccccccccccccccccccccccccccccccccccccc"
         transform="translate(0,924.36218)"
         inkscape:connector-curvature="0"
         id="path4593"
         d="m 11.4719,69.502538 -0.357143,-6.607143 1.607143,7.142857 0.178571,-7.142857 0.892857,6.785714 1.071429,-6.428571 0,7.142857 1.785714,-6.25 0.357143,7.321429 0.357143,-6.071429 0.892857,5 0,-6.607143 1.038932,6.807379 0.568211,-7.164522 0.535714,6.428572 0.535714,-6.428572 1.25,6.428572 0.535715,-5.892857 0.714285,6.25 1.428572,-6.607143 0.178571,6.428571 1.785715,-7.142857 0.892857,5.892857 0.535714,-5 1.607143,5.892857 -0.178572,-5.892857 1.964286,5.535714 0,-2.321428 0.232732,-3.102566 1.374411,6.852566 0.714286,-7.321429 0.892857,6.428572 1.783856,-6.372552 0.716144,4.229695 2.5,-3.035715 -0.535714,3.75 1.428571,-4.107143 0.892857,4.285715 0,-4.821429 1.607143,4.642857 1.071429,-5 0.714285,4.464286 0.714286,1.607143 1.071429,-5.714286 0.714285,6.071429 1.071429,-5.892857 1.25,5.714285 -0.306699,-5.427392 1.913842,3.998821 -3.214286,8.75 -34.821429,-0.892857 z"
         style="fill:#000000;stroke:none" />
      <path
         style="fill:#000000;stroke:none"
         d="m 29.328869,993.86472 -0.214112,-6.60714 0.963506,7.14285 0.107056,-7.14285 0.535281,6.78571 0.642337,-6.42857 0,7.14286 1.070562,-6.25 0.214113,7.32142 0.214112,-6.07142 0.535281,5 0,-6.60715 0.622855,6.80738 0.340651,-7.16452 0.321168,6.42857 0.321169,-6.42857 0.749393,6.42857 0.321169,-5.89286 0.428225,6.25 0.85645,-6.60714 0.107056,6.42857 1.070562,-7.14285 0.535281,5.89285 0.321169,-5 0.963505,5.89286 -0.107056,-5.89286 1.177618,5.53572 0,-2.32143 0.139527,-3.10257 0.823979,6.85257 0.428225,-7.32143 0.535281,6.42857 2.091707,-5.93061 -0.59292,3.78775 1.498787,-3.03571 -0.321169,3.75 0.85645,-4.10714 0.535281,4.28571 0,-4.82143 0.963506,4.64286 0.642337,-5 0.428225,4.46429 0.428225,1.60714 0.642337,-5.71429 0.428224,6.07143 0.642338,-5.89286 0.749393,5.71429 0.535281,-7.32143 0.112552,6.1454 -1.611339,8.49744 -20.87596,-0.8928 z"
         id="path4599"
         inkscape:connector-curvature="0"
         sodipodi:nodetypes="cccccccccccccccccccccccccccccccccccccccccccccccccccc" />
      <path
         sodipodi:nodetypes="cccccccccccccccccccccccccccccccccccccccccccccccccccc"
         inkscape:connector-curvature="0"
         id="path4601"
         d="m 35.095347,993.86472 0.214112,-6.60714 -0.963506,7.14285 -0.107056,-7.14285 -0.535281,6.78571 -0.642337,-6.42857 0,7.14286 -1.070562,-6.25 -0.214113,7.32142 -0.214112,-6.07142 -0.535281,5 0,-6.60715 -0.622855,6.80738 -0.340651,-7.16452 -0.321168,6.42857 -0.321169,-6.42857 -0.749393,6.42857 -0.321169,-5.89286 -0.428225,6.25 -0.85645,-6.60714 -0.107056,6.42857 -1.070562,-7.14285 -0.535281,5.89285 -0.321169,-5 -0.963505,5.89286 0.107056,-5.89286 -1.177618,5.53572 -0.189404,-2.88964 0.04988,-2.53436 -1.202786,6.5369 -0.04942,-7.00576 -0.535281,6.42857 -0.450209,-6.30942 -1.048578,4.16656 -0.551769,-3.28825 -0.625849,4.00254 -0.85645,-4.10714 -0.535281,4.28571 0,-4.82143 -0.963506,4.64286 -0.642337,-5 -0.428225,4.46429 -0.428225,1.60714 -0.642337,-5.71429 -0.428224,6.07143 -0.642338,-5.89286 -0.749393,5.71429 -0.535281,-7.32139 -0.428225,5.89282 1.927012,8.74998 20.87596,-0.8928 z"
         style="fill:#000000;stroke:none" />
      <rect
         transform="scale(1,-1)"
         y="-1001.2908"
         x="11.145394"
         height="8.6607141"
         width="42.05357"
         id="rect4603"
         style="fill:#000000;fill-opacity:1;stroke:none" />
    </g>
    <g
       id="g4611"
       transform="matrix(1,0,0,0.24390248,42,746.05795)">
      <path
         style="fill:#000000;stroke:none"
         d="m 11.4719,69.502538 -0.357143,-6.607143 1.607143,7.142857 0.178571,-7.142857 0.892857,6.785714 1.071429,-6.428571 0,7.142857 1.785714,-6.25 0.357143,7.321429 0.357143,-6.071429 0.892857,5 0,-6.607143 1.038932,6.807379 0.568211,-7.164522 0.535714,6.428572 0.535714,-6.428572 1.25,6.428572 0.535715,-5.892857 0.714285,6.25 1.428572,-6.607143 0.178571,6.428571 1.785715,-7.142857 0.892857,5.892857 0.535714,-5 1.607143,5.892857 -0.178572,-5.892857 1.964286,5.535714 0,-2.321428 0.232732,-3.102566 1.374411,6.852566 0.714286,-7.321429 0.892857,6.428572 1.783856,-6.372552 0.716144,4.229695 2.5,-3.035715 -0.535714,3.75 1.428571,-4.107143 0.892857,4.285715 0,-4.821429 1.607143,4.642857 1.071429,-5 0.714285,4.464286 0.714286,1.607143 1.071429,-5.714286 0.714285,6.071429 1.071429,-5.892857 1.25,5.714285 -0.306699,-5.427392 1.913842,3.998821 -3.214286,8.75 -34.821429,-0.892857 z"
         id="path4613"
         inkscape:connector-curvature="0"
         transform="translate(0,924.36218)"
         sodipodi:nodetypes="cccccccccccccccccccccccccccccccccccccccccccccccccccc" />
      <path
         sodipodi:nodetypes="cccccccccccccccccccccccccccccccccccccccccccccccccccc"
         inkscape:connector-curvature="0"
         id="path4615"
         d="m 29.328869,993.86472 -0.214112,-6.60714 0.963506,7.14285 0.107056,-7.14285 0.535281,6.78571 0.642337,-6.42857 0,7.14286 1.070562,-6.25 0.214113,7.32142 0.214112,-6.07142 0.535281,5 0,-6.60715 0.622855,6.80738 0.340651,-7.16452 0.321168,6.42857 0.321169,-6.42857 0.749393,6.42857 0.321169,-5.89286 0.428225,6.25 0.85645,-6.60714 0.107056,6.42857 1.070562,-7.14285 0.535281,5.89285 0.321169,-5 0.963505,5.89286 -0.107056,-5.89286 1.177618,5.53572 0,-2.32143 0.139527,-3.10257 0.823979,6.85257 0.428225,-7.32143 0.535281,6.42857 2.091707,-5.93061 -0.59292,3.78775 1.498787,-3.03571 -0.321169,3.75 0.85645,-4.10714 0.535281,4.28571 0,-4.82143 0.963506,4.64286 0.642337,-5 0.428225,4.46429 0.428225,1.60714 0.642337,-5.71429 0.428224,6.07143 0.642338,-5.89286 0.749393,5.71429 0.535281,-7.32143 0.112552,6.1454 -1.611339,8.49744 -20.87596,-0.8928 z"
         style="fill:#000000;stroke:none" />
      <path
         style="fill:#000000;stroke:none"
         d="m 35.095347,993.86472 0.214112,-6.60714 -0.963506,7.14285 -0.107056,-7.14285 -0.535281,6.78571 -0.642337,-6.42857 0,7.14286 -1.070562,-6.25 -0.214113,7.32142 -0.214112,-6.07142 -0.535281,5 0,-6.60715 -0.622855,6.80738 -0.340651,-7.16452 -0.321168,6.42857 -0.321169,-6.42857 -0.749393,6.42857 -0.321169,-5.89286 -0.428225,6.25 -0.85645,-6.60714 -0.107056,6.42857 -1.070562,-7.14285 -0.535281,5.89285 -0.321169,-5 -0.963505,5.89286 0.107056,-5.89286 -1.177618,5.53572 -0.189404,-2.88964 0.04988,-2.53436 -1.202786,6.5369 -0.04942,-7.00576 -0.535281,6.42857 -0.450209,-6.30942 -1.048578,4.16656 -0.551769,-3.28825 -0.625849,4.00254 -0.85645,-4.10714 -0.535281,4.28571 0,-4.82143 -0.963506,4.64286 -0.642337,-5 -0.428225,4.46429 -0.428225,1.60714 -0.642337,-5.71429 -0.428224,6.07143 -0.642338,-5.89286 -0.749393,5.71429 -0.535281,-7.32139 -0.428225,5.89282 1.927012,8.74998 20.87596,-0.8928 z"
         id="path4617"
         inkscape:connector-curvature="0"
         sodipodi:nodetypes="cccccccccccccccccccccccccccccccccccccccccccccccccccc" />
      <rect
         style="fill:#000000;fill-opacity:1;stroke:none"
         id="rect4619"
         width="42.05357"
         height="8.6607141"
         x="11.145394"
         y="-1001.2908"
         transform="scale(1,-1)" />
    </g>
    <g
       transform="matrix(1,0,0,0.24390248,84,746.05795)"
       id="g4621">
      <path
         sodipodi:nodetypes="cccccccccccccccccccccccccccccccccccccccccccccccccccc"
         transform="translate(0,924.36218)"
         inkscape:connector-curvature="0"
         id="path4623"
         d="m 11.4719,69.502538 -0.357143,-6.607143 1.607143,7.142857 0.178571,-7.142857 0.892857,6.785714 1.071429,-6.428571 0,7.142857 1.785714,-6.25 0.357143,7.321429 0.357143,-6.071429 0.892857,5 0,-6.607143 1.038932,6.807379 0.568211,-7.164522 0.535714,6.428572 0.535714,-6.428572 1.25,6.428572 0.535715,-5.892857 0.714285,6.25 1.428572,-6.607143 0.178571,6.428571 1.785715,-7.142857 0.892857,5.892857 0.535714,-5 1.607143,5.892857 -0.178572,-5.892857 1.964286,5.535714 0,-2.321428 0.232732,-3.102566 1.374411,6.852566 0.714286,-7.321429 0.892857,6.428572 1.783856,-6.372552 0.716144,4.229695 2.5,-3.035715 -0.535714,3.75 1.428571,-4.107143 0.892857,4.285715 0,-4.821429 1.607143,4.642857 1.071429,-5 0.714285,4.464286 0.714286,1.607143 1.071429,-5.714286 0.714285,6.071429 1.071429,-5.892857 1.25,5.714285 -0.306699,-5.427392 1.913842,3.998821 -3.214286,8.75 -34.821429,-0.892857 z"
         style="fill:#000000;stroke:none" />
      <path
         style="fill:#000000;stroke:none"
         d="m 29.328869,993.86472 -0.214112,-6.60714 0.963506,7.14285 0.107056,-7.14285 0.535281,6.78571 0.642337,-6.42857 0,7.14286 1.070562,-6.25 0.214113,7.32142 0.214112,-6.07142 0.535281,5 0,-6.60715 0.622855,6.80738 0.340651,-7.16452 0.321168,6.42857 0.321169,-6.42857 0.749393,6.42857 0.321169,-5.89286 0.428225,6.25 0.85645,-6.60714 0.107056,6.42857 1.070562,-7.14285 0.535281,5.89285 0.321169,-5 0.963505,5.89286 -0.107056,-5.89286 1.177618,5.53572 0,-2.32143 0.139527,-3.10257 0.823979,6.85257 0.428225,-7.32143 0.535281,6.42857 2.091707,-5.93061 -0.59292,3.78775 1.498787,-3.03571 -0.321169,3.75 0.85645,-4.10714 0.535281,4.28571 0,-4.82143 0.963506,4.64286 0.642337,-5 0.428225,4.46429 0.428225,1.60714 0.642337,-5.71429 0.428224,6.07143 0.642338,-5.89286 0.749393,5.71429 0.535281,-7.32143 0.112552,6.1454 -1.611339,8.49744 -20.87596,-0.8928 z"
         id="path4625"
         inkscape:connector-curvature="0"
         sodipodi:nodetypes="cccccccccccccccccccccccccccccccccccccccccccccccccccc" />
      <path
         sodipodi:nodetypes="cccccccccccccccccccccccccccccccccccccccccccccccccccc"
         inkscape:connector-curvature="0"
         id="path4627"
         d="m 35.095347,993.86472 0.214112,-6.60714 -0.963506,7.14285 -0.107056,-7.14285 -0.535281,6.78571 -0.642337,-6.42857 0,7.14286 -1.070562,-6.25 -0.214113,7.32142 -0.214112,-6.07142 -0.535281,5 0,-6.60715 -0.622855,6.80738 -0.340651,-7.16452 -0.321168,6.42857 -0.321169,-6.42857 -0.749393,6.42857 -0.321169,-5.89286 -0.428225,6.25 -0.85645,-6.60714 -0.107056,6.42857 -1.070562,-7.14285 -0.535281,5.89285 -0.321169,-5 -0.963505,5.89286 0.107056,-5.89286 -1.177618,5.53572 -0.189404,-2.88964 0.04988,-2.53436 -1.202786,6.5369 -0.04942,-7.00576 -0.535281,6.42857 -0.450209,-6.30942 -1.048578,4.16656 -0.551769,-3.28825 -0.625849,4.00254 -0.85645,-4.10714 -0.535281,4.28571 0,-4.82143 -0.963506,4.64286 -0.642337,-5 -0.428225,4.46429 -0.428225,1.60714 -0.642337,-5.71429 -0.428224,6.07143 -0.642338,-5.89286 -0.749393,5.71429 -0.535281,-7.32139 -0.428225,5.89282 1.927012,8.74998 20.87596,-0.8928 z"
         style="fill:#000000;stroke:none" />
      <rect
         transform="scale(1,-1)"
         y="-1001.2908"
         x="11.145394"
         height="8.6607141"
         width="42.05357"
         id="rect4629"
         style="fill:#000000;fill-opacity:1;stroke:none" />
    </g>
    <g
       id="g4698"
       inkscape:export-filename="/home/paul/src/arachnonoia/data/mushroom.png"
       inkscape:export-xdpi="326.5"
       inkscape:export-ydpi="326.5">
      <path
         sodipodi:nodetypes="zszzz"
         inkscape:connector-curvature="0"
         id="path4631"
         d="m 30.714286,952.89789 c -0.535715,-5.44642 2.857784,-11.37649 16.428571,-11.60714 12.856526,-0.2185 16.004046,4.64729 17.678572,10.89286 1.674525,6.24557 -14.545692,4.90021 -17.053572,5.08928 -2.50788,0.18908 -16.517857,1.07143 -17.053571,-4.375 z"
         style="fill:#643a04;fill-opacity:1;stroke:none;stroke-width:1px;stroke-linecap:butt;stroke-linejoin:miter;stroke-opacity:1" />
      <path
         style="fill:#aa722b;stroke:none;stroke-width:1px;stroke-linecap:butt;stroke-linejoin:miter;stroke-opacity:1;fill-opacity:1"
         d="M 42.678572,972.27289 43.75,957.45146 51.785714,957.27289 53.75,972.09432 z"
         id="path4651"
         inkscape:connector-curvature="0"
         sodipodi:nodetypes="ccccc" />
      <path
         id="path4661"
         transform="translate(0,924.36218)"
         d="M 49 29.75 C 41.936142 29.75 35.471961 31.275636 33.71875 31.71875 C 38.111617 33.526243 45.963765 33.043278 47.78125 32.90625 C 49.531051 32.774332 57.947654 33.393731 62.3125 31.65625 C 59.377132 30.872342 54.320488 29.75 49 29.75 z "
         style="fill:#af762d;stroke:none;stroke-width:1px;stroke-linecap:butt;stroke-linejoin:miter;stroke-opacity:1;fill-opacity:1" />
      <path
         id="path4682"
         transform="translate(0,924.36218)"
         d="M 47.15625 16.9375 C 44.233969 16.987167 41.790834 17.296011 39.75 17.8125 C 40.331354 19.347069 42.444909 20.142724 44.6875 19.59375 C 46.375101 19.180634 47.643464 18.124442 48.09375 16.9375 C 47.776202 16.936467 47.486469 16.931888 47.15625 16.9375 z M 36.875 18.78125 C 32.004998 20.907795 30.4897 24.542741 30.6875 28.0625 C 31.249633 28.24478 31.845876 28.34375 32.46875 28.34375 C 35.661646 28.34375 38.25 25.755396 38.25 22.5625 C 38.25 21.125442 37.742784 19.792511 36.875 18.78125 z M 50.90625 18.90625 C 49.599505 18.90625 48.53125 19.943255 48.53125 21.25 C 48.53125 22.556745 49.599505 23.625 50.90625 23.625 C 52.212995 23.625 53.25 22.556745 53.25 21.25 C 53.25 19.943255 52.212995 18.90625 50.90625 18.90625 z M 59.1875 19.28125 C 57.809743 19.903206 56.84375 21.294559 56.84375 22.90625 C 56.84375 25.100596 58.618154 26.875 60.8125 26.875 C 62.111414 26.875 63.245049 26.243787 63.96875 25.28125 C 63.026582 22.865967 61.650477 20.762142 59.1875 19.28125 z M 45.3125 24.90625 C 44.375588 24.90625 43.625 25.688088 43.625 26.625 C 43.625 27.561912 44.375588 28.3125 45.3125 28.3125 C 46.249412 28.3125 47 27.561912 47 26.625 C 47 25.688088 46.249412 24.90625 45.3125 24.90625 z "
         style="fill:#37240a;fill-opacity:1;stroke:none" />
      <path
         style="fill:none;fill-opacity:1;stroke:#000000;stroke-width:1px;stroke-linecap:butt;stroke-linejoin:miter;stroke-opacity:1"
         d="m 30.714286,952.89789 c -0.535715,-5.44642 2.857784,-11.37649 16.428571,-11.60714 12.856526,-0.2185 16.004046,4.64729 17.678572,10.89286 1.674525,6.24557 -14.545692,4.90021 -17.053572,5.08928 -2.50788,0.18908 -16.517857,1.07143 -17.053571,-4.375 z"
         id="path4668"
         inkscape:connector-curvature="0"
         sodipodi:nodetypes="zszzz" />
      <path
         id="path4672"
         transform="translate(0,924.36218)"
         d="M 47.59375 33 L 43.75 33.09375 L 42.6875 47.90625 L 45 47.875 L 47.59375 33 z "
         style="fill:#d99032;stroke:none;stroke-width:1px;stroke-linecap:butt;stroke-linejoin:miter;stroke-opacity:1;fill-opacity:1" />
      <path
         sodipodi:nodetypes="ccccc"
         inkscape:connector-curvature="0"
         id="path4677"
         d="M 42.678572,972.27289 43.75,957.45146 51.785714,957.27289 53.75,972.09432 c -3.620818,0.7561 -7.332369,0.60487 -11.071428,0.17857 z"
         style="fill:none;stroke:#000000;stroke-width:1px;stroke-linecap:butt;stroke-linejoin:miter;stroke-opacity:1" />
    </g>
  </g>
</svg>
