<?xml version="1.0" encoding="UTF-8" standalone="no"?>
<!-- Created with Inkscape (http://www.inkscape.org/) -->

<svg
   xmlns:dc="http://purl.org/dc/elements/1.1/"
   xmlns:cc="http://creativecommons.org/ns#"
   xmlns:rdf="http://www.w3.org/1999/02/22-rdf-syntax-ns#"
   xmlns:svg="http://www.w3.org/2000/svg"
   xmlns="http://www.w3.org/2000/svg"
   xmlns:sodipodi="http://sodipodi.sourceforge.net/DTD/sodipodi-0.dtd"
   xmlns:inkscape="http://www.inkscape.org/namespaces/inkscape"
   width="4096"
   height="4096"
   id="svg3021"
   version="1.1"
   inkscape:version="0.48.4 r9939"
   sodipodi:docname="New document 2">
  <defs
     id="defs3023" />
  <sodipodi:namedview
     id="base"
     pagecolor="#ffffff"
     bordercolor="#666666"
     borderopacity="1.0"
     inkscape:pageopacity="0.0"
     inkscape:pageshadow="2"
     inkscape:zoom="0.175"
     inkscape:cx="682.64747"
     inkscape:cy="1074.295"
     inkscape:document-units="px"
     inkscape:current-layer="layer1"
     showgrid="false"
     inkscape:window-width="1916"
     inkscape:window-height="1015"
     inkscape:window-x="0"
     inkscape:window-y="42"
     inkscape:window-maximized="0" />
  <metadata
     id="metadata3026">
    <rdf:RDF>
      <cc:Work
         rdf:about="">
        <dc:format>image/svg+xml</dc:format>
        <dc:type
           rdf:resource="http://purl.org/dc/dcmitype/StillImage" />
        <dc:title></dc:title>
      </cc:Work>
    </rdf:RDF>
  </metadata>
  <g
     inkscape:label="Layer 1"
     inkscape:groupmode="layer"
     id="layer1"
     transform="translate(0,3043.6378)">
    <path
       style="fill:#000000;stroke:none"
       d="m 287.33183,417.47991 c 63.94095,-56.5632 81.15582,-59.0225 152.47457,-51.6447 20.82494,2.1544 48.65764,1.5828 79.78138,2.0477 7.96184,0.119 16.95162,-5.8944 25.13905,-5.8627 16.90083,0.057 33.44862,-0.046 49.19962,-0.266 8.09066,-0.114 15.19632,5.8266 22.9646,5.6539 42.55739,-0.9459 79.77611,-0.9611 94.90093,-2.7407 18.93739,-2.2282 22.88708,-7.4425 22.88708,-7.4425 0,0 95.30328,-12.8982 165.01029,-11.0638 32.32876,0.8508 135.88985,-6.4584 205.83415,-9.9667 12.8549,-0.6448 9.3304,-5.215 17.4604,-5.2883 18.9628,-0.1711 43.4181,4.8185 72.0182,2.8167 85.2797,-5.969 143.2554,-12.7231 196.5407,-17.0729 120.5041,-9.8371 209.0377,-24.5926 260.6823,-4.9185 21.4401,8.1676 71.5394,14.4656 113.9459,30.1662 l 6.7399,7.9853 c 39.8924,5.287 118.0335,57.2651 135.078,72.5155 46.7261,41.8076 80.0337,96.6734 79.566,123.8328 -0.7203,41.8332 -61.4817,61.4817 -147.556,90.9929 -86.0744,29.5112 -116.455,43.3973 -116.455,43.3973 0,0 -88.5337,14.7556 -122.9634,0 -34.4297,-14.7555 -90.9929,-36.7398 -90.9929,-36.7398 l -14.4828,-13.4641 -56.8359,-26.0333 c 0,0 -206.5784,-17.2149 -258.2231,-9.8371 -51.6446,7.3778 -295.11204,19.6741 -295.11204,19.6741 0,0 -41.80756,-14.7556 -63.94098,-9.837 -22.13337,4.9185 -71.31871,12.2963 -71.31871,12.2963 0,0 -238.54893,-2.4593 -304.94914,-4.9185 -36.77011,-1.3619 -69.01534,1.047 -93.81233,-1.1258 -19.98191,-1.7509 -35.12734,-6.4768 -43.90663,-18.5484 -19.67412,-27.0519 -17.82969,-45.4964 -17.82969,-45.4964 l -4.91853,-5.5334 c 0,0 0.61482,-35.6593 -2.45927,-39.3482 -3.07408,-3.6889 -4.91853,-64.5558 -3.07408,-70.0891 1.84445,-5.5334 8.60743,-14.1408 8.60743,-14.1408 z"
       id="path3351"
       inkscape:connector-curvature="0"
       sodipodi:nodetypes="cssccsscssssssccssscscccscscsssccssc" />
    <path
       style="fill:#000000;fill-opacity:1;stroke:none"
       d="m 289.86023,62.352013 c 9.01107,-13.1643 20.42517,-26.7281 31.23859,-46.4746 10.81342,-19.7465997 12.73805,-29.4005 27.98612,-43.0997 15.63712,-14.0489 83.72067,-25.4163 129.15971,-29.6199 43.19885,-3.9963 45.0557,-10.9703 45.0557,-10.9703 l 61.27584,-9.8732 9.6119,0 19.22366,-10.9704 14.41795,2.1941 c 0,0 38.44749,-12.0674 67.28322,-17.552503 28.83559,-5.4851 141.77534,-13.1643 141.77534,-13.1643 l 19.22363,-6.5822 c 0,0 85.30549,4.388 100.9248,2.1939 15.61948,-2.1939 407.30391,-20.8435 455.36321,-15.3584 48.0596,5.4853 210.2023,5.0706 219.872,16.4555 1.5727,1.8516 142.9768,-4.3881 142.9768,-4.3881 11.3543,-1.3739 28.2055,5.3871 36.0447,13.1643 l 33.6416,1.0971 c 0,0 0,5.4851 6.0074,6.5822 6.0073,1.097 57.2743,11.416703 72.0892,27.425803 18.8026,20.3185 30.1513,42.0155 36.0445,83.3744003 -138.8271,32.6576997 -181.8208,17.9364997 -288.3565,27.4255997 -106.0031,9.4418 -258.3197,65.821897 -258.3197,65.821897 l -109.3352,3.2911 c 0,0 -165.2044,-48.817797 -280.547,-35.653497 -115.34259,13.1644 -201.24875,37.847597 -215.66672,38.944697 -14.41775,1.0968 -156.19309,5.4851 -211.46154,-4.3882 -55.26829,-9.873397 -140.57382,-20.843597 -140.57382,-20.843597 0,0 -54.06676,40.590197 -84.10401,43.881197 -30.03708,3.2912 -57.6713,0 -75.69362,-15.3584 -18.02231,-15.358497 -14.169,-34.389997 -5.15776,-47.554497 z"
       id="path3353"
       inkscape:connector-curvature="0"
       sodipodi:nodetypes="zssscccccscccsscccsscsccscscssz" />
  </g>
</svg>
